{"title":"Jack and Jill 2011 720p BDRip XviD ac3 (avi) [GREYSHADOW]","uid":7046974,"size":3887007891,"categoryP":"video","categoryS":"hd___movies","magnet":"?xt=urn:btih:e34b07c16ee82a60de5ae0749f6f049371d6b19a&amp;dn=Jack+and+Jill+2011+720p+BDRip+XviD+ac3+%28avi%29+%5BGREYSHADOW%5D&amp;tr=udp%3A%2F%2Ftracker.openbittorrent.com%3A80&amp;tr=udp%3A%2F%2Fopen.demonii.com%3A1337&amp;tr=udp%3A%2F%2Ftracker.coppersurfer.tk%3A6969&amp;tr=udp%3A%2F%2Fexodus.desync.com%3A6969","seeders":0,"leechers":0,"uploader":"grey.shadow","files":4,"time":1329785952,"description":"***************************************************************\n\n[IMG]http://www.hotimg.org/images/67363952943939111394.png[/IMG]\n\n***************************************************************\n\n[IMG]http://www.hotimg.org/images/07325204776003944334.jpg[/IMG]\n\n***************************************************************\n\nFILM TITLE: Jack and Jill (2011)\n\n***************************************************************\n\nGenre:  Comedy  \n\nRated PG for crude material including suggestive references, language and comic violence\n\nRelease:  3 February 2012 (Poland)\n\nDirector: Dennis Dugan\n\nWriter: Adam Sandler (screenplay), Steve Koren (screenplay)\n\nStars:  Adam Sandler, Katie Holmes and Al Pacino\n\nCountry: USA \n\nLanguage:  English\n\nPlot:\nFamily guy Jack Sadelstein prepares for the annual event he \ndreads: the Thanksgiving visit of his twin sister, the needy and \npassive-aggressive Jill, who then refuses to leave.\n\nIMDB Rating: 3.0/10 from 8,909 users   Metascore: 23/100 \n &lt;a href=&quot;\nhttp://www.imdb.com/title/tt0810913/&quot; rel=&quot;nofollow&quot; target=&quot;_NEW&quot;&gt;\nhttp://www.imdb.com/title/tt0810913/&lt;/a&gt;\n\n****************************************************************\n\n[URL=http://www.hotimg.org/viewer.php?file=85754068177040023050.png][IMG]http://www.hotimg.org/images/85754068177040023050_thumb.png[/IMG][/URL]\n[URL=http://www.hotimg.org/viewer.php?file=70635318548426953863.png][IMG]http://www.hotimg.org/images/70635318548426953863_thumb.png[/IMG][/URL]\n[URL=http://www.hotimg.org/viewer.php?file=37167966275493223199.png][IMG]http://www.hotimg.org/images/37167966275493223199_thumb.png[/IMG][/URL]\n[URL=http://www.hotimg.org/viewer.php?file=65151555769087101742.png][IMG]http://www.hotimg.org/images/65151555769087101742_thumb.png[/IMG][/URL]\n\n****************************************************************\n\nGeneral\nComplete name                    : Jack and Jill 2011 720p BDRip XviD ac3 (avi) [GREYSHADOW].avi\nFormat                           : AVI\nFormat/Info                      : Audio Video Interleave\nFormat profile                   : OpenDML\nFile size                        : 3.58 GiB\nDuration                         : 1h 30mn\nOverall bit rate                 : 5644 Kbps\nWriting library                  : VirtualDub build 32842/release\n\nVideo\nID                               : 0\nFormat                           : MPEG-4 Visual\nFormat profile                   : Simple@L5\nFormat settings, BVOP            : No\nFormat settings, QPel            : No\nFormat settings, GMC             : No warppoints\nFormat settings, Matrix          : Default (H.263)\nCodec ID                         : XVID\nCodec ID/Hint                    : XviD\nDuration                         : 1h 30mn\nBit rate                         : 4995 Kbps\nWidth                            : 1280 pixels\nHeight                           : 688 pixels\nDisplay aspect ratio             : 1.860\nFrame rate                       : 23.976 fps\nColor space                      : YUV\nChroma subsampling               : 4:2:0\nBit depth                        : 8 bits\nScan type                        : Progressive\nCompression mode                 : Lossy\nBits/(Pixel*Frame)               : 0.237\nStream size                      : 3.17 GiB (88%)\nWriting library                  : XviD 64\n\nAudio\nID                               : 1\nFormat                           : AC-3\nFormat/Info                      : Audio Coding 3\nMode extension                   : CM (complete main)\nCodec ID                         : 2000\nDuration                         : 1h 30mn\nBit rate mode                    : Constant\nBit rate                         : 640 Kbps\nChannel(s)                       : 6 channels\nChannel positions                : Front: L C R, Side: L R, LFE\nSampling rate                    : 48.0 KHz\nBit depth                        : 16 bits\nCompression mode                 : Lossy\nStream size                      : 416 MiB (11%)\nAlignment                        : Aligned on interleaves\nInterleave, duration             : 42 ms (1.00 video frame)\nInterleave, preload duration     : 512 ms\n\n****************************************************************\n\nVideo Source: D:\\Jack.and.Jill.2011.BluRay.1080p.AVC.DTS-HD.MA5.1-CHDBits (25.2GB)\n\nThanks: chdbits.org\n\n****************************************************************\n\nI provide a small sample, so please download this to check your \ncompatibility first if you are unsure.\n\n****************************************************************","torrent":{"xt":"urn:btih:e34b07c16ee82a60de5ae0749f6f049371d6b19a","amp;dn":"Jack+and+Jill+2011+720p+BDRip+XviD+ac3+%28avi%29+%5BGREYSHADOW%5D","amp;tr":["udp%3A%2F%2Ftracker.openbittorrent.com%3A80","udp%3A%2F%2Fopen.demonii.com%3A1337","udp%3A%2F%2Ftracker.coppersurfer.tk%3A6969","udp%3A%2F%2Fexodus.desync.com%3A6969"],"infoHash":"e34b07c16ee82a60de5ae0749f6f049371d6b19a","infoHashBuffer":{"type":"Buffer","data":[227,75,7,193,110,232,42,96,222,90,224,116,159,111,4,147,113,214,177,154]},"announce":[],"urlList":[]}}